<svg width="70" height="70" viewBox="0 0 70 71" fill="none" xmlns="http://www.w3.org/2000/svg">
<g clip-path="url(#clip0_1_26)">
<g clip-path="url(#clip1_1_26)">
<path d="M65.7125 18.3208C64.7763 6.51416 51.5171 7.7202 51.5171 7.7202C45.9215 -2.14542 37.1788 5.00041 37.1788 5.00041C30.4617 -4.66834 22.0413 4.29166 22.0413 4.29166C7.52063 2.72541 8.08354 14.5962 8.08354 14.5962C7.74229 18.3704 10.1296 30.0444 10.1296 30.0444C7.97563 23.3156 3.30459 28.901 3.30459 28.901C-2.44125 37.7648 1.88271 42.6167 1.88271 42.6167C9.65563 51.7254 26.2194 62.6585 26.2194 62.6585C32.2175 66.0944 29.68 69.1583 29.68 69.1583L65.9575 63.1646L66.7902 56.2842C72.3056 39.6067 65.7125 18.3208 65.7125 18.3208Z" fill="#3B4262"/>
</g>
</g>
<defs>
<clipPath id="clip0_1_26">
<rect width="70" height="70" fill="white" transform="translate(0 0.5)"/>
</clipPath>
<clipPath id="clip1_1_26">
<rect width="70" height="70" fill="white" transform="translate(0 0.5)"/>
</clipPath>
</defs>
</svg>
