<svg width="70" height="70" viewBox="0 0 70 70" fill="none" xmlns="http://www.w3.org/2000/svg">
<g clip-path="url(#clip0_1_16)">
<g clip-path="url(#clip1_1_16)">
<path d="M62.5932 14.538C62.1286 14.3553 61.63 14.2752 61.1315 14.303C60.4553 14.3505 59.9107 14.6246 59.5868 15.0742C57.6837 17.7413 56.1236 22.7778 54.8659 26.8259C54.2893 28.6969 53.5134 31.2015 52.9534 32.3903C52.3685 29.06 53.0293 16.8598 53.2856 12.1615L53.2892 12.0856C53.4671 8.82168 53.4909 8.24863 53.4529 7.99711C53.1705 6.20677 52.4527 5.031 51.3185 4.50541C50.1724 3.97151 48.6846 4.2088 47.0805 5.17338C46.2773 5.65982 46.0542 7.32795 45.3649 14.8903L45.3626 14.9235C44.9829 19.0785 44.1073 28.6459 43.0312 30.2405C41.8175 28.01 40.147 15.3447 39.4256 9.86219C38.9214 6.02287 38.6271 3.81846 38.429 3.15287C38.0137 1.75761 36.2578 0.571174 34.5197 0.504734C33.0722 0.433547 31.8858 1.16914 31.3187 2.44812C30.258 3.62863 30.6329 7.54033 31.8051 16.8064C32.3627 21.2176 33.5136 30.3259 32.7898 31.3486C31.3436 31.1908 28.8627 25.4852 25.4161 14.3837C24.448 11.2752 24.149 10.3403 23.8524 9.931C23.2663 8.5049 21.2754 7.40507 19.491 7.52965C19.3409 7.5401 19.1915 7.55951 19.0437 7.58778C18.11 7.77287 15.978 8.63304 16.4336 12.6017C17.6912 18.1032 19.0592 22.1419 20.3856 26.063L20.4129 26.1413C21.2066 28.4905 21.9576 30.7091 22.6553 33.171C24.2985 38.9846 23.659 42.5913 23.6519 42.6329C23.5973 43.003 23.4822 43.2296 23.3102 43.3091C23.2369 43.3408 23.1585 43.3589 23.0788 43.3625C22.5568 43.3981 21.7761 43.054 21.3739 42.8286C20.4532 41.0703 15.8736 32.6917 11.7234 31.529L11.5739 31.4851L11.4232 31.4993C9.90102 31.6429 8.78221 32.2183 8.09763 33.209C7.01323 34.7751 7.46289 36.7707 7.57085 37.1717L7.63255 37.3141C7.66577 37.3746 10.9949 43.442 11.5098 46.2646C11.9536 48.6849 14.2517 51.3069 16.1002 53.414L16.1761 53.5007C16.7788 54.1888 17.2985 54.7856 17.709 55.3373C23.0705 60.929 31.5488 65.632 31.6176 65.6712C32.6759 66.4507 33.2632 67.2052 33.3261 67.8542C33.355 68.0996 33.2869 68.3465 33.1363 68.5424L32.9524 68.7346L34.1246 69.8735L56.4926 68.3027L57.4464 63.9318C60.3959 51.5905 59.7802 41.0668 59.7695 40.9979C59.7814 40.61 60.6071 36.8656 61.2715 33.8402L61.2917 33.763C62.617 27.7359 64.2637 20.2376 64.5805 17.3866C64.7181 16.1669 63.9375 15.0469 62.5932 14.538Z" fill="#3B4262"/>
</g>
</g>
<defs>
<clipPath id="clip0_1_16">
<rect width="70" height="70" fill="white" transform="translate(0.75 0.5)"/>
</clipPath>
<clipPath id="clip1_1_16">
<rect width="58.1356" height="70" fill="white" transform="translate(6.68221 0.5)"/>
</clipPath>
</defs>
</svg>
