<svg width="70" height="70" viewBox="0 0 70 70" fill="none" xmlns="http://www.w3.org/2000/svg">
<g clip-path="url(#clip0_1_21)">
<g clip-path="url(#clip1_1_21)">
<path d="M21.3357 31.5196L28.5915 21.3636C25.5755 20.8627 20.0371 20.7517 15.5015 25.2679C8.35068 32.3874 5.45413 47.7657 4.85069 51.489L23.0241 69.5827C26.296 69.3027 40.7812 67.3777 54.7402 53.4827C54.8874 53.1822 58.2884 50.6815 55.5078 47.9141C54.1802 46.5926 51.9848 46.6179 50.6295 47.9672C49.9391 48.6552 48.8662 48.6636 48.1903 47.9914C47.5145 47.3191 47.5241 46.2498 48.2145 45.5631L53.1471 40.6522C55.6526 38.1576 53.2907 33.9479 49.7919 34.9593L45.7548 38.4002C45.0174 39.0398 43.9203 38.93 43.3145 38.2312C42.6881 37.5107 42.8221 36.4172 43.5353 35.8017C57.6403 23.4817 55.5802 24.965 64.656 16.4974C68.0462 13.6865 63.781 8.71654 60.4403 11.5612L38.4869 31.2155C37.8484 31.7562 36.8697 31.7671 36.2421 31.1914C35.5167 30.5674 35.4998 29.6683 35.9741 28.9586L51.286 5.25999C53.5236 2.24275 49.1196 -1.10881 46.7614 1.93257L24.1224 33.4567C23.5769 34.2412 22.4762 34.4222 21.7267 33.8731C21.5439 33.7463 21.3884 33.5842 21.2694 33.3962C21.1503 33.2083 21.0703 32.9983 21.0339 32.7788C20.9976 32.5594 21.0057 32.3348 21.0577 32.1185C21.1097 31.9022 21.2047 31.6986 21.3369 31.5196H21.3357Z" fill="#3B4262"/>
</g>
</g>
<defs>
<clipPath id="clip0_1_21">
<rect width="70" height="70" fill="white" transform="translate(0.25 0.5)"/>
</clipPath>
<clipPath id="clip1_1_21">
<rect width="61.5517" height="70" fill="white" transform="translate(4.47414 0.5)"/>
</clipPath>
</defs>
</svg>
